<?xml version="1.0" encoding="UTF-8"?>
<svg id="_圖層_2" data-name="圖層 2" xmlns="http://www.w3.org/2000/svg" viewBox="0 0 448 512">
  <defs>
    <style>
      .cls-1 {
        fill: #939393;
        stroke-width: 0px;
      }
    </style>
  </defs>
  <path class="cls-1" d="M383.3,146.84h-43.72c-1.19-35.98-12.46-69.8-32.01-95.79-22.02-29.26-51.83-45.37-83.94-45.37s-61.92,16.11-83.94,45.37c-19.55,25.99-30.82,59.81-32.01,95.79h-43.72c-33.41,0-60.58,27.18-60.58,60.58v188.99c0,60.86,49.51,110.37,110.37,110.37h219.76c60.86,0,110.37-49.51,110.37-110.37v-188.99c0-33.4-27.17-60.58-60.58-60.58ZM172.16,75.48c14.15-18.81,32.43-29.17,51.47-29.17s37.32,10.36,51.47,29.17c14.33,19.05,22.69,44.19,23.82,71.36h-150.58c1.13-27.17,9.49-52.31,23.82-71.36ZM391.15,396.41c0,31.78-25.86,57.64-57.64,57.64H113.75c-31.78,0-57.64-25.86-57.64-57.64v-188.99c0-4.33,3.52-7.85,7.85-7.85h319.34c4.33,0,7.85,3.52,7.85,7.85v188.99Z"/>
</svg>